<?xml version="1.0" standalone="no"?>
<!DOCTYPE svg PUBLIC "-//W3C//DTD SVG 1.1//EN" "http://www.w3.org/Graphics/SVG/1.1/DTD/svg11.dtd" >
<svg xmlns="http://www.w3.org/2000/svg">
<metadata></metadata>
<defs>
<font id="helveticaneuecyrmedium" horiz-adv-x="1138" >
<font-face units-per-em="2048" ascent="1638" descent="-410" />
<missing-glyph horiz-adv-x="569" />
<glyph horiz-adv-x="2048" />
<glyph horiz-adv-x="2048" />
<glyph unicode="&#xd;" horiz-adv-x="2048" />
<glyph unicode=" "  horiz-adv-x="569" />
<glyph unicode="&#x09;" horiz-adv-x="569" />
<glyph unicode="&#xa0;" horiz-adv-x="569" />
<glyph unicode="!" horiz-adv-x="569" d="M152 0v260h266v-260h-266zM160 1038v420h250v-418l-66 -637h-121z" />
<glyph unicode="&#x22;" horiz-adv-x="909" d="M174 1425h207l-37 -596h-133zM530 1425h205l-35 -596h-135z" />
<glyph unicode="#" d="M31 399v164h213l55 297h-182v164h213l76 401h192l-74 -401h226l73 401h193l-74 -401h182v-164h-213l-55 -297h182v-164h-213l-73 -399h-193l74 399h-225l-74 -399h-193l74 399h-184zM438 563h226l55 297h-225z" />
<glyph unicode="$" d="M27 428v18h233q-2 -10 -2 -22q0 -252 256 -274v499q-453 66 -453 404q0 193 136 301q117 94 317 112v148h102v-148q205 -4 326 -106q119 -102 119 -273v-30h-221v14q0 197 -224 219v-450q485 -80 486 -434q0 -193 -135 -314q-133 -121 -351 -121v-176h-102v176 q-215 0 -348 115q-139 123 -139 342zM283 1075q0 -158 231 -213v426q-231 -16 -231 -213zM616 147q115 4 185 72t69 174q0 182 -254 234v-480z" />
<glyph unicode="%" horiz-adv-x="2048" d="M178 1049q0 193 88 297q90 104 252 104q330 0 330 -389q0 -418 -334 -418q-336 0 -336 406zM358 1038q0 -264 154 -264q156 0 156 285q0 258 -154 258q-156 0 -156 -279zM530 -63l811 1548h156l-807 -1548h-160zM1210 377q0 193 88 297q90 104 252 104q330 0 330 -389 q0 -418 -334 -418q-336 0 -336 406zM1391 367q0 -264 153 -265q156 0 156 285q0 258 -154 258q-155 1 -155 -278z" />
<glyph unicode="&#x26;" horiz-adv-x="1327" d="M68 391q0 281 331 434q-145 178 -145 322q0 141 100 233q102 90 260 90q154 0 254 -90q98 -92 99 -233q0 -236 -258 -373l223 -276q37 78 51 198h205q-18 -217 -119 -358l287 -338h-287l-135 164q-164 -195 -410 -195q-195 0 -321 111q-135 117 -135 311zM297 397 q0 -96 70 -166q70 -68 170 -67q154 0 272 158l-289 354q-223 -129 -223 -279zM463 1153q0 -76 121 -227l8 -11q170 100 170 226q0 68 -41 112q-43 43 -107 43q-66 0 -108 -41q-43 -41 -43 -102z" />
<glyph unicode="'" horiz-adv-x="569" d="M182 1425h205l-39 -596h-127z" />
<glyph unicode="(" horiz-adv-x="569" d="M102 526q0 520 295 942h187q-248 -467 -248 -938q0 -473 250 -921h-189q-295 483 -295 917z" />
<glyph unicode=")" horiz-adv-x="569" d="M-18 -391q250 449 249 921q0 471 -247 938h186q295 -422 295 -942q0 -434 -295 -917h-188z" />
<glyph unicode="*" horiz-adv-x="757" d="M37 1192l45 131l227 -86l-2 242h142l-5 -242l228 86l49 -131l-232 -78l142 -192l-109 -82l-145 202l-141 -202l-113 82l141 192z" />
<glyph unicode="+" horiz-adv-x="1228" d="M86 430v195h424v430h209v-430h426v-195h-426v-430h-209v430h-424z" />
<glyph unicode="," horiz-adv-x="569" d="M145 0v276h279v-208q0 -326 -279 -390v123q127 39 134 199h-134z" />
<glyph unicode="-" horiz-adv-x="796" d="M98 455v217h600v-217h-600z" />
<glyph unicode="." horiz-adv-x="569" d="M145 0v276h279v-276h-279z" />
<glyph unicode="/" horiz-adv-x="720" d="M-37 -35l592 1528h203l-588 -1528h-207z" />
<glyph unicode="0" d="M74 707q0 739 491 739q500 -1 500 -744q0 -731 -492 -731q-500 0 -499 736zM309 692q0 -276 64 -401q61 -125 198 -125q166 0 226 201q33 113 32 335q0 231 -32 345q-57 203 -230 202q-166 1 -223 -192q-35 -117 -35 -365z" />
<glyph unicode="1" d="M166 991v172q373 0 418 279h188v-1442h-250v991h-356z" />
<glyph unicode="2" d="M47 0q6 223 127 373q80 98 301 248q172 115 211 153q104 102 105 232q0 113 -62 176q-63 66 -170 65q-143 0 -201 -106q-43 -78 -47 -234h-227v37q0 231 131 367q129 137 350 137q209 0 336 -117q127 -119 127 -313q0 -180 -121 -313q-68 -74 -272 -209 q-256 -166 -307 -289h698v-207h-979z" />
<glyph unicode="3" d="M55 440v31h226q10 -301 278 -301q119 0 189 70q70 68 69 186q0 240 -287 240q-39 0 -73 -2v176h20q135 0 201 34q94 47 94 173q0 94 -59 151t-160 57q-229 0 -240 -282h-223q6 221 131 348t336 127q199 0 322 -107q123 -106 122 -278q0 -225 -200 -293q260 -66 260 -338 q0 -205 -141 -334t-367 -129q-223 0 -360 129t-138 342z" />
<glyph unicode="4" d="M51 340v231l615 875h221v-909h182v-197h-182v-340h-225l-3 340h-608zM244 537h420v620z" />
<glyph unicode="5" d="M57 408h232q8 -111 80 -177t180 -65q266 0 266 309q0 143 -72 221q-72 80 -198 80q-154 0 -240 -129l-205 6l138 772h739v-202h-571l-66 -369q96 102 270 102q199 0 322 -129t123 -340q0 -227 -144 -370q-143 -143 -368 -144q-213 0 -344 119q-133 117 -142 316z" />
<glyph unicode="6" d="M74 690q0 358 141 559t391 201q182 0 297 -100t135 -281h-225q-37 197 -217 197q-164 0 -236 -185q-39 -98 -59 -311q119 176 328 176q199 0 319 -131q123 -131 123 -342q0 -219 -135 -360q-137 -141 -348 -142q-248 0 -381 187q-133 186 -133 532zM332 471 q0 -137 69 -221q72 -84 187 -84q113 0 180 82q70 82 70 217q0 133 -70 215q-70 80 -186 80q-115 0 -183 -78q-68 -80 -67 -211z" />
<glyph unicode="7" d="M76 1210v215h977v-196q-223 -223 -367 -565q-143 -340 -156 -664h-256q8 291 170 651q162 358 377 559h-745z" />
<glyph unicode="8" d="M66 414q0 276 262 358q-205 72 -205 299q0 168 127 275q125 106 325 106q193 0 316 -104q123 -106 123 -271q0 -219 -203 -305q262 -90 262 -346q0 -203 -139 -326q-139 -125 -367 -125q-225 0 -362 121q-139 121 -139 318zM301 426q0 -123 74 -195t200 -71q123 0 193 69 q70 68 70 191q0 119 -74 190q-74 70 -197 70q-118 0 -192 -70q-74 -72 -74 -184zM342 1057q0 -94 64 -152q63 -57 165 -57t164 55q61 57 62 154q0 94 -62 151q-59 55 -162 56q-106 -1 -167 -56q-63 -57 -64 -151z" />
<glyph unicode="9" d="M61 948q0 219 138 363q137 141 350 141q276 0 405 -231q102 -182 103 -476q0 -313 -109 -516q-137 -258 -420 -258q-182 0 -305 109q-125 109 -133 276h225q8 -88 68 -141q59 -57 158 -57q260 0 282 501q-117 -182 -319 -182q-193 0 -318 133q-125 131 -125 338zM297 954 q0 -133 68 -211t180 -77q113 0 182 79q70 80 70 209q0 137 -70 220q-70 82 -186 81q-110 1 -176 -81q-68 -84 -68 -220z" />
<glyph unicode=":" horiz-adv-x="569" d="M145 0v276h279v-276h-279zM145 770v277h279v-277h-279z" />
<glyph unicode=";" horiz-adv-x="569" d="M145 0v276h279v-208q0 -326 -279 -390v123q127 39 134 199h-134zM145 770v277h279v-277h-279z" />
<glyph unicode="&#x3c;" horiz-adv-x="1228" d="M86 426v205l1059 407v-217l-795 -293l795 -292v-222z" />
<glyph unicode="=" horiz-adv-x="1228" d="M86 209v197h1059v-197h-1059zM86 649v197h1059v-197h-1059z" />
<glyph unicode="&#x3e;" horiz-adv-x="1228" d="M86 14v222l795 292l-795 293v217l1059 -407v-205z" />
<glyph unicode="?" d="M90 995q10 227 129 357q127 135 359 135q207 0 333 -111q125 -113 125 -295q0 -127 -63 -219q-39 -55 -160 -160q-102 -88 -121 -124q-23 -43 -22 -175h-221q0 248 141 379q111 102 133 129q63 80 63 170t-59 148q-59 57 -154 57q-240 0 -247 -291h-236zM426 0v260h264 v-260h-264z" />
<glyph unicode="@" horiz-adv-x="1638" d="M59 709q0 334 238 559q240 225 588 225q305 0 499 -170q195 -172 195 -442q0 -215 -127 -377q-129 -162 -299 -162q-76 0 -123 41t-47 109q0 18 6 45q-102 -195 -284 -195q-125 0 -201 86q-78 88 -78 227q0 199 123 349q125 147 289 147q174 0 233 -145l31 112h168 l-133 -448q-25 -82 -25 -125q0 -82 86 -82q102 0 186 133q84 131 84 295q0 223 -161 362q-162 139 -420 140q-307 0 -512 -197t-205 -491q0 -281 195 -459q193 -180 495 -180q293 0 563 198l58 -78q-299 -221 -627 -221q-334 0 -559 203q-236 209 -236 541zM621 645 q0 -182 135 -182q109 0 188 168q66 141 66 262q0 59 -37 98t-94 39q-111 0 -191 -143q-68 -123 -67 -242z" />
<glyph unicode="A" horiz-adv-x="1366" d="M-16 0l563 1460h272l563 -1460h-274l-139 387h-578l-143 -387h-264zM457 580h444l-217 614z" />
<glyph unicode="B" horiz-adv-x="1441" d="M152 0v1458h665q229 0 354 -102q119 -96 119 -264q0 -223 -209 -308q274 -68 275 -354q0 -193 -129 -311q-127 -119 -332 -119h-743zM401 209h383q315 0 316 227q0 137 -99 191q-72 39 -221 39h-379v-457zM401 850h349q286 0 286 200q0 124 -84 169q-59 32 -186 32h-8 h-357v-401z" />
<glyph unicode="C" horiz-adv-x="1478" d="M86 729q0 324 182 537q190 225 512 225q231 0 396 -123q180 -133 215 -375h-254q-27 131 -123 207q-96 74 -238 74q-215 0 -332 -172q-100 -147 -100 -373q0 -227 98 -375q115 -172 332 -172q326 0 373 373h256q-20 -268 -191 -428q-172 -162 -444 -162q-309 0 -496 209 q-186 209 -186 555z" />
<glyph unicode="D" horiz-adv-x="1478" d="M154 0v1458h555q311 0 477 -149q215 -193 215 -555q0 -387 -205 -592q-162 -162 -473 -162h-569zM408 215h301q436 0 436 526q0 500 -453 500h-284v-1026z" />
<glyph unicode="E" horiz-adv-x="1290" d="M152 0v1458h1050v-215h-796v-387h739v-207h-739v-430h808v-219h-1062z" />
<glyph unicode="F" horiz-adv-x="1214" d="M154 0v1458h1009v-217h-751v-397h659v-207h-659v-637h-258z" />
<glyph unicode="G" horiz-adv-x="1554" d="M86 719q0 330 188 545q197 225 525 225q238 0 409 -129q182 -137 207 -367h-248q-23 131 -123 205q-98 76 -247 76q-211 0 -332 -148q-121 -147 -121 -403q0 -258 123 -404q121 -147 338 -147q190 0 299 123q98 115 98 289h-393v196h625v-780h-164l-39 174 q-174 -209 -455 -209q-307 0 -497 209q-193 209 -193 545z" />
<glyph unicode="H" horiz-adv-x="1478" d="M150 0v1458h256v-579h667v579h256v-1458h-256v655h-667v-655h-256z" />
<glyph unicode="I" horiz-adv-x="569" d="M156 0v1458h258v-1458h-258z" />
<glyph unicode="J" horiz-adv-x="1099" d="M51 457v55h244v-80q0 -258 211 -258q129 0 172 88q29 59 29 205v991h256v-1026q0 -467 -449 -467q-463 0 -463 492z" />
<glyph unicode="K" horiz-adv-x="1402" d="M152 0v1458h254v-661l645 661h323l-583 -581l620 -877h-317l-480 698l-208 -209v-489h-254z" />
<glyph unicode="L" horiz-adv-x="1175" d="M152 0v1458h258v-1237h741v-221h-999z" />
<glyph unicode="M" horiz-adv-x="1820" d="M154 0v1458h358l408 -1141l393 1141h356v-1458h-244v1124l-405 -1124h-209l-416 1124v-1124h-241z" />
<glyph unicode="N" horiz-adv-x="1478" d="M150 0v1458h268l672 -1075v1075h245v-1458h-264l-680 1073v-1073h-241z" />
<glyph unicode="O" horiz-adv-x="1556" d="M262 1272q195 221 520 221q309 0 502 -213q195 -211 195 -551t-195 -553q-195 -211 -506 -211q-313 0 -506 211q-194 210 -194 550q0 335 184 546zM336 733q0 -254 121 -403q119 -150 325 -150q199 0 320 150q119 152 119 401q0 250 -119 399q-121 147 -324 148 q-200 0 -321 -150q-121 -147 -121 -395z" />
<glyph unicode="P" horiz-adv-x="1366" d="M158 0v1458h633q236 0 366 -108q141 -115 141 -336q0 -209 -124 -330q-129 -123 -349 -123h-411v-561h-256zM414 768h356q279 0 279 240q0 237 -298 237h-3h-334v-477z" />
<glyph unicode="Q" horiz-adv-x="1556" d="M274 1276q195 213 506 213q307 0 502 -211q195 -213 195 -547q0 -367 -207 -563l190 -164l-125 -139l-217 184q-133 -84 -346 -84q-309 0 -502 211q-192 208 -192 545q0 342 196 555zM336 729q0 -254 121 -403q121 -152 323 -152q86 0 164 35l-149 127l123 139l172 -149 q131 166 131 403q0 248 -121 397q-121 147 -324 148q-201 0 -319 -150q-121 -147 -121 -395z" />
<glyph unicode="R" horiz-adv-x="1441" d="M152 0v1458h690q217 0 344 -90q147 -104 147 -315q0 -274 -241 -359q125 -27 174 -125q31 -63 43 -207q25 -305 77 -362h-274q-33 49 -47 291q-10 178 -72 241q-68 70 -248 70h-339v-602h-254zM406 793h337q156 0 232 38q104 53 104 195q0 223 -303 223h-370v-456z" />
<glyph unicode="S" horiz-adv-x="1327" d="M66 483h251q0 -160 111 -241q98 -72 266 -72q147 0 232 61q82 59 82 168q0 102 -90 154q-53 29 -250 80q-299 78 -392 133q-157 95 -157 293q0 197 147 313q145 115 391 115q238 0 379 -107q158 -119 166 -352h-244q-23 256 -317 256q-131 0 -205 -53q-74 -55 -74 -150 q0 -96 80 -135q41 -20 291 -86q264 -68 357 -125q170 -104 170 -311q0 -229 -183 -352q-156 -104 -397 -105q-274 0 -436 127q-178 135 -178 389z" />
<glyph unicode="T" horiz-adv-x="1214" d="M14 1237v221h1186v-221h-465v-1237h-256v1237h-465z" />
<glyph unicode="U" horiz-adv-x="1478" d="M141 569v889h256v-940q0 -336 351 -336q203 0 276 115q57 90 57 301v860h256v-893q0 -594 -594 -594q-602 0 -602 598z" />
<glyph unicode="V" horiz-adv-x="1251" d="M-10 1458h268l369 -1153l377 1153h260l-500 -1458h-285z" />
<glyph unicode="W" horiz-adv-x="1933" d="M16 1458h260l267 -1110l299 1110h260l289 -1110l274 1110h260l-403 -1458h-260l-295 1120l-301 -1120h-265z" />
<glyph unicode="X" horiz-adv-x="1327" d="M-12 0l520 756l-483 702h305l332 -516l346 516h286l-483 -702l518 -756h-311l-365 557l-370 -557h-295z" />
<glyph unicode="Y" horiz-adv-x="1327" d="M-10 1458h295l387 -645l383 645h286l-548 -878v-580h-252v580z" />
<glyph unicode="Z" horiz-adv-x="1290" d="M39 0v211l844 1026h-783v221h1112v-203l-850 -1034h875v-221h-1198z" />
<glyph unicode="[" horiz-adv-x="606" d="M145 -369v1844h459v-183h-242v-1478h242v-183h-459z" />
<glyph unicode="\" horiz-adv-x="720" d="M6 1493h189l524 -1528h-189z" />
<glyph unicode="]" horiz-adv-x="606" d="M2 -186h242v1478h-242v183h459v-1844h-459v183z" />
<glyph unicode="^" horiz-adv-x="1228" d="M164 555l358 870h185l358 -870h-211l-244 610l-235 -610h-211z" />
<glyph unicode="_" horiz-adv-x="1024" d="M0 -154h1024v-102h-1024v102z" />
<glyph unicode="`" horiz-adv-x="493" d="M-74 1489h275l186 -293h-170z" />
<glyph unicode="a" d="M68 289q0 184 157 262q88 43 316 72q205 27 231 61q14 16 14 76q0 160 -217 160q-115 0 -168 -43t-67 -146h-221q37 358 462 359q434 0 435 -320v-537q0 -77 54 -77h1q25 0 53 4v-164q-90 -23 -151 -23q-150 0 -172 127q-133 -127 -371 -127q-164 0 -260 84 q-96 86 -96 232zM307 297q0 -158 191 -158q156 0 239 84q47 47 47 183v124q-51 -29 -245 -57q-111 -16 -156 -41q-76 -43 -76 -135z" />
<glyph unicode="b" horiz-adv-x="1251" d="M125 0v1458h231v-538q116 163 343 163h3q211 0 340 -149q127 -150 127 -397q0 -256 -131 -410q-131 -156 -348 -156q-240 0 -346 172v-143h-219zM348 526q0 -170 80 -268q78 -98 215 -98q131 0 211 102q80 100 80 270q0 168 -78 267q-80 98 -213 98h-5q-133 0 -212 -98 q-78 -98 -78 -273z" />
<glyph unicode="c" d="M76 518q0 262 143 416q141 156 383 156q203 0 328 -103q123 -102 143 -285h-231q-41 207 -238 207q-135 0 -213 -100q-78 -102 -78 -279q0 -176 74 -274q76 -98 209 -98q217 0 256 241h229q-25 -195 -155 -311q-131 -115 -330 -115q-238 0 -381 154q-139 147 -139 391z " />
<glyph unicode="d" horiz-adv-x="1251" d="M80 530q0 254 129 406q130 149 347 149h3q223 0 336 -165v538h229v-1458h-219v145q-100 -174 -338 -174q-223 0 -356 152q-131 152 -131 407zM315 535q0 -174 80 -275q78 -100 215 -100t213 98q78 98 78 272t-78 271q-80 96 -221 96q-133 0 -209 -96q-78 -98 -78 -266z " />
<glyph unicode="e" d="M70 516q0 248 145 410q142 161 364 161h3q231 0 366 -159q135 -158 135 -432v-25h-780q10 -334 291 -334q184 0 252 193h223q-39 -172 -170 -269q-129 -96 -309 -96q-240 0 -383 158q-137 152 -137 393zM307 627h543q-10 133 -82 211q-73 75 -185 75h-3q-238 0 -273 -286 z" />
<glyph unicode="f" horiz-adv-x="645" d="M20 887v170h175v84q0 166 69 243q74 82 244 82q70 0 139 -6v-180q-68 6 -102 6q-72 0 -96 -26q-25 -25 -25 -101v-102h201v-170h-199v-887h-231v887h-175z" />
<glyph unicode="g" horiz-adv-x="1214" d="M74 537q0 248 129 399q128 149 339 149h3q205 0 329 -176v148h218v-934q0 -272 -111 -397q-121 -137 -397 -138q-434 0 -473 322h233q33 -158 246 -158q145 0 213 74q66 74 65 237v125q-115 -178 -336 -178q-211 0 -333 144q-125 141 -125 383zM305 541q0 -160 76 -254 q78 -94 205 -94q131 0 207 98q75 95 75 258q0 166 -75 256q-74 92 -207 92q-131 0 -207 -94q-74 -94 -74 -262z" />
<glyph unicode="h" horiz-adv-x="1175" d="M125 0v1458h231v-547q117 172 334 172q172 0 266 -92q98 -94 99 -274v-717h-236v641q0 121 -37 176q-47 72 -168 72q-258 0 -258 -322v-567h-231z" />
<glyph unicode="i" horiz-adv-x="493" d="M129 0v1057h233v-1057h-233zM129 1235v229h233v-229h-233z" />
<glyph unicode="j" horiz-adv-x="493" d="M-39 -209l55 -4q66 0 90 16q31 20 31 80v1174h234v-1112q0 -186 -66 -264q-72 -86 -246 -87q-31 0 -98 7v190zM137 1235v231h234v-231h-234z" />
<glyph unicode="k" horiz-adv-x="1099" d="M125 0v1458h227v-821l422 420h287l-406 -387l443 -670h-285l-321 510l-140 -131v-379h-227z" />
<glyph unicode="l" horiz-adv-x="493" d="M131 0v1458h231v-1458h-231z" />
<glyph unicode="m" horiz-adv-x="1781" d="M125 0v1057h221v-150q131 178 332 178q219 0 295 -180q127 180 342 180q150 0 246 -86q100 -92 100 -249v-750h-234v649q0 113 -32 168q-45 72 -156 72q-231 0 -231 -268v-621h-234v662q0 113 -29 161q-39 66 -145 66q-119 0 -182 -78q-59 -76 -60 -203v-608h-233z" />
<glyph unicode="n" horiz-adv-x="1175" d="M125 0v1057h221v-156q127 184 350 184q358 0 359 -380v-705h-234v614q0 133 -33 193q-45 84 -172 84q-258 0 -258 -322v-569h-233z" />
<glyph unicode="o" horiz-adv-x="1214" d="M74 528q0 256 147 408q144 151 388 151h3.5h2.5q240 0 382 -151q143 -152 144 -408q0 -258 -144 -409q-141 -152 -385 -152q-248 0 -393 152t-145 409zM309 528q0 -178 80 -278t221 -100q137 0 217 102q78 100 78 278q0 174 -80 273q-78 100 -217 100t-219 -100t-80 -275 z" />
<glyph unicode="p" horiz-adv-x="1251" d="M127 -391v1448h219v-142q106 172 344 172q219 0 350 -153q131 -154 131 -410q0 -250 -127 -401q-129 -150 -342 -150q-225 0 -344 166v-530h-231zM350 528q0 -172 78 -270q80 -98 219 -98q133 0 211 98t78 266q0 172 -78 275q-80 100 -215 100q-137 0 -215 -98t-78 -273z " />
<glyph unicode="q" horiz-adv-x="1251" d="M80 524q0 260 131 412q128 151 349 151h3q233 0 342 -169v139h219v-1448h-229v532q-125 -168 -346 -168q-215 0 -342 150q-127 147 -127 401zM315 522q0 -168 78 -266q78 -96 213 -96q139 0 217 98q78 100 78 277q0 172 -78 268q-80 96 -221 96q-131 0 -209 -102 q-78 -100 -78 -275z" />
<glyph unicode="r" horiz-adv-x="720" d="M102 0v1057h220v-211q113 235 352 235h2l45 -4v-223q-61 6 -82 6q-305 0 -305 -395v-465h-232z" />
<glyph unicode="s" horiz-adv-x="1062" d="M63 338h224q18 -199 256 -199q102 0 166 41q61 43 61 113t-76 106q-35 16 -176 52q-242 59 -307 96q-125 70 -125 221q0 150 115 236q114 83 312 83h5q195 0 311 -79q131 -88 132 -258h-224q-20 168 -229 168q-188 0 -189 -123q0 -72 72 -103q29 -12 199 -51 q199 -47 274 -90q135 -80 135 -234q0 -160 -125 -254t-335 -94q-457 0 -476 369z" />
<glyph unicode="t" horiz-adv-x="681" d="M16 887v170h177v317h233v-317h213v-170h-213v-557q0 -88 14 -113q23 -39 107 -39q57 0 92 4v-184q-70 -8 -158 -8q-207 0 -260 106q-28 57 -28 272v15v504h-177z" />
<glyph unicode="u" horiz-adv-x="1175" d="M123 356v701h233v-604q0 -143 29 -201q45 -84 178 -84q131 0 197 100q57 86 57 230v559h234v-1057h-220v158q-133 -186 -348 -187q-360 0 -360 385z" />
<glyph unicode="v" horiz-adv-x="1062" d="M16 1057h254l271 -813l260 813h241l-378 -1059h-263z" />
<glyph unicode="w" horiz-adv-x="1593" d="M25 1057h247l209 -793l199 793h235l195 -793l219 793h238l-334 -1057h-240l-198 784l-197 -784h-246z" />
<glyph unicode="x" horiz-adv-x="1099" d="M6 0l400 555l-367 502h283l221 -326l231 326h270l-358 -490l404 -567h-281l-268 389l-260 -389h-275z" />
<glyph unicode="y" horiz-adv-x="1062" d="M6 1057h256l283 -778l266 778h244l-391 -1037q-84 -227 -127 -288q-96 -135 -267 -135q-66 0 -161 12v196q74 -14 122 -14q76 0 123 86q14 27 58 154z" />
<glyph unicode="z" horiz-adv-x="1024" d="M45 0v178l590 694h-549v185h860v-164l-598 -705h629v-188h-932z" />
<glyph unicode="{" horiz-adv-x="606" d="M-49 489v125q141 23 201 80q61 59 61 185v155q0 238 115 340q100 90 327 101v-125q-129 -12 -184 -80q-57 -68 -57 -211v-119q0 -178 -54 -262q-63 -104 -231 -125q174 -27 236 -127q49 -80 49 -262v-123q0 -266 241 -285v-125q-236 12 -331 99q-111 98 -111 338v120 q0 152 -49 211q-53 63 -213 90z" />
<glyph unicode="|" horiz-adv-x="454" d="M125 -438v2048h205v-2048h-205z" />
<glyph unicode="}" horiz-adv-x="606" d="M-49 -244q242 18 242 285v123q0 182 49 262q61 100 235 127q-168 20 -231 125q-53 84 -53 262v119q0 143 -56 211q-57 68 -186 80v125q227 -10 328 -101q115 -102 114 -340v-155q0 -125 62 -185q59 -57 200 -80v-125q-160 -27 -213 -90q-49 -59 -49 -211v-120 q0 -240 -110 -338q-96 -86 -332 -99v125z" />
<glyph unicode="~" horiz-adv-x="1228" d="M68 358q14 143 79 232q78 104 211 104q61 0 277 -69q203 -68 260 -68q109 0 133 139h133q-35 -334 -293 -334q-68 0 -274 66q-221 76 -256 76q-117 0 -137 -146h-133z" />
<glyph unicode="&#xa3;" d="M68 655v129h118q-86 113 -86 273q0 186 138 303q135 117 354 117q236 0 366 -129q129 -129 129 -361h-231q-10 289 -264 289q-106 0 -174 -66q-70 -66 -70 -166q0 -82 98 -260h299v-129h-241v-2q25 -74 24 -141q0 -162 -204 -330q113 51 206 51q68 0 156 -24 q104 -31 152 -31q113 0 192 80l105 -174q-113 -113 -310 -113q-66 0 -235 49q-117 35 -195 35q-86 0 -211 -80l-110 166q223 152 223 344q0 72 -47 170h-182z" />
<glyph unicode="&#xa4;" d="M70 328l135 135q-76 123 -76 246q0 135 76 245l-135 136l118 118l136 -135q100 76 245 76q127 0 248 -76l133 135l119 -118l-135 -136q76 -100 76 -247q0 -125 -76 -244l135 -135l-119 -119l-135 135q-102 -76 -244 -76q-137 0 -247 76l-136 -135zM307 709 q0 -109 76 -187q78 -76 186 -76q109 0 185 76q78 78 77 187q0 109 -75 184q-78 78 -187 78q-108 0 -186 -78q-76 -76 -76 -184z" />
<glyph unicode="&#xa6;" horiz-adv-x="454" d="M125 -182v512h205v-512h-205zM125 842v512h205v-512h-205z" />
<glyph unicode="&#xa7;" d="M51 647q0 229 215 293q-90 92 -90 209q0 147 113 242q113 92 291 92q182 0 292 -103q109 -102 109 -272h-215q-12 193 -191 192q-78 0 -124 -38q-47 -41 -48 -107q0 -76 80 -133q25 -16 248 -141q182 -100 238 -150q119 -102 118 -239q0 -213 -210 -302q113 -90 112 -235 q0 -152 -115 -248q-117 -96 -296 -96q-199 0 -314 104t-119 287h220q23 -205 215 -205q80 0 131 43q49 41 49 109q0 78 -88 145q-63 45 -314 178q-147 76 -213 144q-94 96 -94 231zM258 666q0 -94 121 -160l371 -209q127 43 127 162q0 90 -115 155l-375 215 q-129 -39 -129 -163z" />
<glyph unicode="&#xa9;" horiz-adv-x="1638" d="M55 729q0 317 224 541q225 223 540 223q318 0 541 -223t223 -541q0 -315 -223 -541q-223 -223 -541 -223q-315 0 -540 223q-223 225 -224 541zM156 729q0 -274 194 -469q195 -195 469 -194q274 0 469 194q195 195 195 469t-195 469t-469 195t-469 -195t-194 -469z M418 731q0 197 114 324q113 127 289 127q152 0 258 -90t115 -228h-156q-33 184 -213 185q-109 0 -174 -86q-66 -86 -65 -226q0 -147 67 -233q68 -88 183 -88q168 0 206 174h156q-14 -133 -115 -221q-102 -86 -243 -86q-182 0 -301 127q-121 129 -121 321z" />
<glyph unicode="&#xab;" horiz-adv-x="948" d="M102 432v221l322 250v-209l-199 -149l199 -154v-213zM506 428v225l317 250v-213l-194 -147l194 -152v-211z" />
<glyph unicode="&#xac;" horiz-adv-x="1228" d="M86 649v197h1059v-637h-201v440h-858z" />
<glyph unicode="&#xad;" horiz-adv-x="796" d="M98 455v217h600v-217h-600z" />
<glyph unicode="&#xae;" horiz-adv-x="819" d="M27 1112q0 158 110 268q113 113 271 113q157 0 270 -111q113 -113 113 -270q2 -158 -111 -270q-115 -113 -272 -113q-158 0 -271 113q-111 113 -110 270zM92 1112q0 -131 92 -223q92 -94 224 -94q131 0 223 94q92 92 92 223t-92 223t-223 92q-132 0 -224 -92t-92 -223z M250 903v420h149q186 0 187 -123q0 -74 -76 -100q68 -27 70 -139q0 -31 10 -58h-94q-8 25 -9 58q-2 63 -20 81t-78 19h-45v-158h-94zM344 1135h51q94 0 94 57q0 55 -94 55h-51v-112z" />
<glyph unicode="&#xb0;" horiz-adv-x="819" d="M80 1116q0 137 96 234q96 96 234 96q137 0 233 -96t96 -234q0 -137 -96 -233t-233 -97q-137 0 -234 97q-96 96 -96 233zM248 1116q0 -66 47 -115q47 -47 115 -47t114 47q47 49 47 115q0 68 -47 115t-114 47q-68 0 -115 -47t-47 -115z" />
<glyph unicode="&#xb1;" horiz-adv-x="1228" d="M86 -33v195h1059v-195h-1059zM86 559v197h424v331h209v-331h426v-197h-426v-323h-209v323h-424z" />
<glyph unicode="&#xb5;" horiz-adv-x="1175" d="M115 -391v1448h233v-469q0 -205 25 -285q49 -147 202 -147q254 0 254 432v469h234v-1057h-199v145q-115 -168 -293 -168q-162 0 -223 115v-483h-233z" />
<glyph unicode="&#xb6;" horiz-adv-x="1228" d="M35 965q0 227 143 360t389 133h598v-158h-110v-1673h-191v1673h-227v-1673h-193v883q-193 14 -301 137q-109 121 -108 318z" />
<glyph unicode="&#xb7;" horiz-adv-x="569" d="M145 457v276h279v-276h-279z" />
<glyph unicode="&#xbb;" horiz-adv-x="948" d="M125 184v207l194 148l-194 151v213l315 -250v-223zM524 180v209l197 148l-197 155v213l322 -256v-221z" />
<glyph unicode="&#xf7;" horiz-adv-x="1228" d="M86 430v195h1059v-195h-1059zM494 18v267h241v-267h-241zM494 770v266h241v-266h-241z" />
<glyph unicode="&#x192;" d="M0 -340l31 182q33 -2 80 -2q104 0 145 72q16 29 43 162l127 659h-188l30 164h189l41 221q35 186 125 266t270 80q57 0 133 -6l-35 -182q-43 4 -82 4q-80 0 -118 -39q-35 -37 -58 -141l-41 -203h209l-31 -164h-206l-127 -676q-41 -225 -113 -305q-90 -98 -303 -98 q-29 0 -121 6z" />
<glyph unicode="&#x401;" horiz-adv-x="1290" d="M152 0v1458h1050v-215h-796v-387h739v-207h-739v-430h808v-219h-1062zM354 1583v221h230v-221h-230zM764 1583v221h227v-221h-227z" />
<glyph unicode="&#x402;" horiz-adv-x="1593" d="M16 1237v221h1184v-221h-506v-498q115 166 332 166q240 0 379 -160q135 -158 135 -417q0 -250 -145 -414q-143 -162 -355 -162q-20 0 -69 4v195q135 0 221 102q92 106 92 281q0 371 -297 371q-137 0 -215 -99q-78 -98 -78 -272v-334h-256v1237h-422z" />
<glyph unicode="&#x403;" horiz-adv-x="1153" d="M156 0v1458h989v-221h-733v-1237h-256zM438 1550l174 293h271l-277 -293h-168z" />
<glyph unicode="&#x404;" horiz-adv-x="1478" d="M88 729q0 324 182 537q190 225 512 225q225 0 387 -115q176 -127 220 -356h-256q-68 254 -355 254q-182 0 -295 -125q-98 -111 -127 -293h617v-207h-623q16 -201 115 -323q115 -143 311 -144q293 0 363 307h258q-37 -240 -203 -380q-170 -143 -424 -144q-309 0 -496 209 q-186 209 -186 555z" />
<glyph unicode="&#x405;" horiz-adv-x="1327" d="M66 483h251q0 -160 111 -241q98 -72 266 -72q147 0 232 61q82 59 82 168q0 102 -90 154q-53 29 -250 80q-299 78 -392 133q-158 96 -157 295q0 195 147 311q145 115 391 115q238 0 379 -107q158 -119 166 -352h-244q-23 256 -317 256q-131 0 -205 -53q-74 -55 -74 -150 q0 -96 80 -135q41 -20 291 -86q264 -68 357 -125q170 -104 170 -311q0 -229 -183 -352q-156 -104 -397 -105q-274 0 -436 127q-178 135 -178 389z" />
<glyph unicode="&#x406;" horiz-adv-x="569" d="M156 0v1458h258v-1458h-258z" />
<glyph unicode="&#x407;" horiz-adv-x="569" d="M-35 1579v223h230v-223h-230zM156 0v1458h258v-1458h-258zM375 1579v223h227v-223h-227z" />
<glyph unicode="&#x408;" horiz-adv-x="1099" d="M51 457v55h244v-80q0 -258 211 -258q129 0 172 88q29 59 29 205v991h256v-1026q0 -467 -449 -467q-463 0 -463 492z" />
<glyph unicode="&#x409;" horiz-adv-x="2119" d="M16 0v197q41 -16 101 -17q90 0 133 78q55 98 63 354l29 846h915v-557h297q240 0 369 -117t129 -331q0 -217 -129 -334q-131 -119 -369 -119h-553v1237h-413l-27 -694q-12 -291 -123 -439q-100 -131 -268 -131q-74 0 -154 27zM1257 209h287q252 0 252 237q1 115 -67 181 t-189 65h-283v-483z" />
<glyph unicode="&#x40a;" horiz-adv-x="2119" d="M150 0v1458h256v-555h581v555h256v-557h311q240 0 369 -117t129 -331q0 -217 -129 -334q-131 -119 -369 -119h-567v692h-581v-692h-256zM1243 209h301q252 0 252 237q1 115 -67 181t-189 65h-297v-483z" />
<glyph unicode="&#x40b;" horiz-adv-x="1593" d="M16 1237v221h1184v-221h-506v-360q193 29 314 28q295 0 424 -162q88 -111 88 -282v-461h-256v383q0 131 -39 192q-66 102 -258 103q-133 0 -273 -23v-655h-256v1237h-422z" />
<glyph unicode="&#x40c;" horiz-adv-x="1402" d="M152 0v1458h254v-661l645 661h323l-583 -581l620 -877h-317l-480 698l-208 -209v-489h-254zM561 1550l174 293h271l-277 -293h-168z" />
<glyph unicode="&#x40e;" horiz-adv-x="1251" d="M-10 1458h282l353 -782l360 782h277l-568 -1161q-164 -332 -415 -332q-90 0 -173 37v215q59 -37 164 -37q98 0 222 228l2 2zM297 1827h119q39 -156 217 -156t217 156h119q-31 -289 -336 -289t-336 289z" />
<glyph unicode="&#x40f;" horiz-adv-x="1478" d="M150 0v1458h256v-1237h667v1237h256v-1458h-463v-362h-256v362h-460z" />
<glyph unicode="&#x410;" horiz-adv-x="1366" d="M-16 0l563 1460h272l563 -1460h-274l-139 387h-578l-143 -387h-264zM457 580h444l-217 614z" />
<glyph unicode="&#x411;" horiz-adv-x="1441" d="M156 0v1458h1073v-221h-817v-336h436q240 0 369 -117t129 -331q0 -217 -129 -334q-131 -119 -369 -119h-692zM412 209h426q252 0 252 237q0 115 -68 181t-188 65h-422v-483z" />
<glyph unicode="&#x412;" horiz-adv-x="1441" d="M152 0v1458h665q229 0 354 -102q119 -96 119 -264q0 -223 -209 -308q274 -68 275 -354q0 -193 -129 -311q-127 -119 -332 -119h-743zM401 209h383q315 0 316 227q0 137 -99 191q-72 39 -221 39h-379v-457zM401 850h349q287 0 286 201q0 123 -84 168q-61 33 -194 32h-357 v-401z" />
<glyph unicode="&#x413;" horiz-adv-x="1153" d="M156 0v1458h989v-221h-733v-1237h-256z" />
<glyph unicode="&#x414;" horiz-adv-x="1478" d="M10 221h142q190 338 190 1012v225h950v-1237h164v-583h-248v362h-950v-362h-248v583zM426 221h610v1016h-444v-88q0 -592 -166 -928z" />
<glyph unicode="&#x415;" horiz-adv-x="1290" d="M152 0v1458h1050v-215h-796v-387h739v-207h-739v-430h808v-219h-1062z" />
<glyph unicode="&#x416;" horiz-adv-x="2136" d="M-14 0l630 840l-561 618h316l569 -655v655h256v-655l569 655h316l-561 -618l630 -840h-319l-477 655l-158 -176v-479h-256v479l-158 176l-477 -655h-319z" />
<glyph unicode="&#x417;" horiz-adv-x="1327" d="M66 483h251q0 -160 111 -241q98 -72 266 -72q287 0 287 256q0 233 -272 233h-179v199h179q100 0 165 62q68 66 68 165q0 205 -258 205q-295 0 -317 -256h-244q8 233 166 352q141 106 379 107q231 0 370 -94q156 -104 156 -301q0 -111 -74 -203q-70 -88 -159 -111v-6 q123 -25 198 -121q78 -98 78 -235q0 -166 -125 -295q-154 -160 -432 -160q-274 0 -436 127q-178 135 -178 389z" />
<glyph unicode="&#x418;" horiz-adv-x="1478" d="M150 0v1458h256v-1118l626 1118h297v-1458h-256v1118l-627 -1118h-296z" />
<glyph unicode="&#x419;" horiz-adv-x="1478" d="M150 0v1458h256v-1118l626 1118h297v-1458h-256v1118l-627 -1118h-296zM403 1827h119q39 -156 217 -156t217 156h119q-31 -289 -336 -289t-336 289z" />
<glyph unicode="&#x41a;" horiz-adv-x="1402" d="M152 0v1458h254v-661l645 661h323l-583 -581l620 -877h-317l-480 698l-208 -209v-489h-254z" />
<glyph unicode="&#x41b;" horiz-adv-x="1441" d="M16 0v197q41 -16 101 -17q90 0 133 78q55 98 63 354l29 846h952v-1458h-256v1237h-450l-27 -694q-12 -291 -123 -439q-100 -131 -268 -131q-74 0 -154 27z" />
<glyph unicode="&#x41c;" horiz-adv-x="1820" d="M154 0v1458h358l408 -1141l393 1141h356v-1458h-244v1124l-405 -1124h-209l-416 1124v-1124h-241z" />
<glyph unicode="&#x41d;" horiz-adv-x="1478" d="M150 0v1458h256v-579h667v579h256v-1458h-256v655h-667v-655h-256z" />
<glyph unicode="&#x41e;" horiz-adv-x="1556" d="M78 729q0 332 184 543q195 221 520 221q309 0 502 -213q195 -211 195 -551t-195 -553q-195 -211 -506 -211q-313 0 -506 211q-195 211 -194 553zM336 733q0 -254 121 -403q119 -150 325 -150q199 0 320 150q119 152 119 401q0 250 -119 399q-121 147 -324 148 q-200 0 -321 -150q-121 -147 -121 -395z" />
<glyph unicode="&#x41f;" horiz-adv-x="1478" d="M150 0v1458h1179v-1458h-256v1237h-667v-1237h-256z" />
<glyph unicode="&#x420;" horiz-adv-x="1366" d="M158 0v1458h633q236 0 366 -108q141 -115 141 -336q0 -209 -124 -330q-129 -123 -349 -123h-411v-561h-256zM414 768h356q279 0 279 240q0 238 -301 237h-334v-477z" />
<glyph unicode="&#x421;" horiz-adv-x="1478" d="M86 729q0 324 182 537q190 225 512 225q231 0 396 -123q180 -133 215 -375h-254q-27 131 -123 207q-96 74 -238 74q-215 0 -332 -172q-100 -147 -100 -373q0 -227 98 -375q115 -172 332 -172q326 0 373 373h256q-20 -268 -191 -428q-172 -162 -444 -162q-309 0 -496 209 q-186 209 -186 555z" />
<glyph unicode="&#x422;" horiz-adv-x="1214" d="M14 1237v221h1186v-221h-465v-1237h-256v1237h-465z" />
<glyph unicode="&#x423;" horiz-adv-x="1251" d="M-10 1458h282l353 -782l360 782h277l-568 -1161q-164 -332 -415 -332q-90 0 -173 37v215q59 -37 164 -37q100 0 222 226l2 4z" />
<glyph unicode="&#x424;" horiz-adv-x="1652" d="M70 735q0 266 188 426q174 147 440 156v141h256v-141q270 -10 443 -156q186 -160 186 -426q0 -268 -197 -426q-176 -141 -432 -145v-164h-256v164q-256 4 -430 145q-199 158 -198 426zM326 735q0 -305 372 -350v711q-373 -39 -372 -361zM954 385q373 45 373 350 q0 322 -373 361v-711z" />
<glyph unicode="&#x425;" horiz-adv-x="1327" d="M-12 0l520 756l-483 702h305l332 -516l346 516h286l-483 -702l518 -756h-311l-365 557l-370 -557h-295z" />
<glyph unicode="&#x426;" horiz-adv-x="1503" d="M143 0v1458h256v-1237h668v1237h256v-1237h160v-583h-248v362h-1092z" />
<glyph unicode="&#x427;" horiz-adv-x="1402" d="M102 1042v416h256v-338q0 -131 39 -192q66 -102 258 -103q168 0 342 35v598h256v-1458h-256v639q-236 -41 -383 -41q-295 0 -424 162q-88 111 -88 282z" />
<glyph unicode="&#x428;" horiz-adv-x="2197" d="M150 0v1458h256v-1237h565v1237h256v-1237h565v1237h256v-1458h-1898z" />
<glyph unicode="&#x429;" horiz-adv-x="2222" d="M143 0v1458h256v-1237h566v1237h256v-1237h565v1237h256v-1237h160v-583h-248v362h-1811z" />
<glyph unicode="&#x42a;" horiz-adv-x="1665" d="M16 1237v221h695v-557h389q240 0 368 -117q129 -117 129 -331q0 -217 -129 -334q-131 -119 -368 -119h-645v1237h-439zM711 209h379q252 0 251 237q1 115 -67 181t-189 65h-374v-483z" />
<glyph unicode="&#x42b;" horiz-adv-x="1835" d="M156 0v1458h256v-557h348q240 0 368 -117q129 -117 129 -331q0 -217 -129 -334q-131 -119 -368 -119h-604zM412 209h338q252 0 251 237q1 115 -67 181t-189 65h-333v-483zM1430 0v1458h256v-1458h-256z" />
<glyph unicode="&#x42c;" horiz-adv-x="1366" d="M156 0v1458h256v-557h389q240 0 368 -117q129 -117 129 -331q0 -217 -129 -334q-131 -119 -368 -119h-645zM412 209h379q252 0 251 237q1 115 -67 181t-189 65h-374v-483z" />
<glyph unicode="&#x42d;" horiz-adv-x="1478" d="M84 489h258q70 -307 363 -307q197 0 311 144q98 123 114 323h-622v207h616q-29 182 -127 293q-113 125 -295 125q-287 0 -354 -254h-256q43 229 219 356q162 115 387 115q322 0 514 -225q180 -213 181 -537q-1 -346 -187 -555t-495 -209q-254 0 -424 144 q-166 141 -203 380z" />
<glyph unicode="&#x42e;" horiz-adv-x="2084" d="M150 0v1458h256v-579h264q43 274 217 440q180 174 450 174q292 0 480 -213q190 -213 190 -551t-192 -553q-188 -211 -482 -211q-281 0 -465 191q-186 193 -206 503h-256v-659h-256zM918 733q0 -252 118 -403q115 -150 301 -150q182 0 295 150q117 154 117 401 q0 250 -115 399q-113 147 -301 148q-184 0 -299 -150q-117 -150 -116 -395z" />
<glyph unicode="&#x42f;" horiz-adv-x="1402" d="M-27 0l449 627q-315 98 -316 428q0 184 125 293q129 111 359 110h663v-1458h-256v602h-290l-414 -602h-320zM362 1032q0 -236 250 -235h385v452h-381q-254 0 -254 -217z" />
<glyph unicode="&#x430;" d="M68 289q0 184 157 262q88 43 316 72q205 27 231 61q14 16 14 76q0 160 -217 160q-115 0 -168 -43t-67 -146h-221q37 358 462 359q434 0 435 -320v-537q0 -78 55 -77q25 0 53 4v-164q-90 -23 -151 -23q-150 0 -172 127q-133 -127 -371 -127q-164 0 -260 84q-96 86 -96 232 zM307 297q0 -158 191 -158q156 0 239 84q47 47 47 183v124q-51 -29 -245 -57q-111 -16 -156 -41q-76 -43 -76 -135z" />
<glyph unicode="&#x431;" horiz-adv-x="1214" d="M96 598q0 416 133 621q129 201 424 221q131 10 146 14q51 8 67 43h234q-27 -166 -164 -215q-61 -25 -307 -43q-283 -23 -371 -397h6q133 217 395 217q205 0 340 -148q139 -152 140 -395q-1 -248 -140 -395q-139 -150 -370 -150q-356 0 -479 293q-53 123 -54 334zM332 516 q0 -164 80 -262q78 -98 206 -98q129 0 207 98q80 98 80 262q0 162 -80 260q-78 98 -207 98t-206 -96q-80 -98 -80 -262z" />
<glyph unicode="&#x432;" d="M123 0v1057h584q147 0 231 -68q82 -68 82 -190q0 -152 -152 -224v-4q199 -51 199 -272q0 -143 -100 -221q-102 -78 -289 -78h-555zM356 176h322q158 0 158 143q0 147 -158 148h-322v-291zM356 637h297q135 0 135 127q0 117 -141 117h-291v-244z" />
<glyph unicode="&#x433;" horiz-adv-x="872" d="M123 0v1057h739v-185h-506v-872h-233z" />
<glyph unicode="&#x434;" horiz-adv-x="1228" d="M14 184h133q125 293 125 754v119h795v-873h141v-520h-221v336h-751v-336h-222v520zM387 184h451v693h-342v-72q0 -356 -109 -621z" />
<glyph unicode="&#x435;" d="M70 516q0 248 145 410q143 162 367 161q231 0 366 -159q135 -158 135 -432v-25h-780q10 -334 291 -334q184 0 252 193h223q-39 -172 -170 -269q-129 -96 -309 -96q-240 0 -383 158q-137 152 -137 393zM307 627h543q-10 133 -82 211q-74 76 -188 75q-238 0 -273 -286z" />
<glyph unicode="&#x436;" horiz-adv-x="1593" d="M-18 0l454 606l-403 451h282l363 -447h6v447h225v-447h6l363 447h283l-404 -451l455 -606h-281l-323 459l-99 -111v-348h-225v348l-98 111l-324 -459h-280z" />
<glyph unicode="&#x437;" horiz-adv-x="1062" d="M59 330h236q25 -178 240 -178q100 0 159 41q59 43 60 116q0 156 -207 156h-131v172h94q211 0 211 139q0 133 -193 133q-168 0 -202 -157h-236q31 336 461 335q178 0 283 -65q119 -74 118 -219q0 -86 -53 -150q-47 -59 -117 -73v-5q84 -16 140 -75q66 -74 65 -187 q0 -162 -141 -256q-127 -86 -309 -86q-225 0 -351 97q-119 94 -127 262z" />
<glyph unicode="&#x438;" horiz-adv-x="1175" d="M123 0v1057h233v-770h6l396 770h295v-1057h-234v770h-6l-395 -770h-295z" />
<glyph unicode="&#x439;" horiz-adv-x="1175" d="M123 0v1057h233v-770h6l396 770h295v-1057h-234v770h-6l-395 -770h-295zM252 1493h119q39 -156 217 -156t217 156h119q-31 -289 -336 -289t-336 289z" />
<glyph unicode="&#x43a;" horiz-adv-x="1099" d="M123 0v1057h233v-469l422 469h285l-412 -424l459 -633h-283l-331 473l-140 -145v-328h-233z" />
<glyph unicode="&#x43b;" horiz-adv-x="1175" d="M27 -2v182q20 -10 84 -10q139 0 147 262l18 625h781v-1057h-234v872h-323l-15 -462q-6 -207 -90 -322q-82 -113 -225 -113q-86 0 -143 23z" />
<glyph unicode="&#x43c;" horiz-adv-x="1441" d="M123 0v1057h307l295 -840h4l285 840h307v-1057h-225v702h-4l-252 -702h-236l-252 702h-4v-702h-225z" />
<glyph unicode="&#x43d;" horiz-adv-x="1175" d="M123 0v1057h233v-414h463v414h234v-1057h-234v459h-463v-459h-233z" />
<glyph unicode="&#x43e;" horiz-adv-x="1214" d="M74 528q0 256 147 408q145 152 391 151q242 1 385 -151t144 -408q0 -258 -144 -409q-141 -152 -385 -152q-248 0 -393 152t-145 409zM309 528q0 -178 80 -278t221 -100q137 0 217 102q78 100 78 278q0 174 -80 273q-78 100 -217 100t-219 -100t-80 -275z" />
<glyph unicode="&#x43f;" horiz-adv-x="1175" d="M123 0v1057h930v-1057h-234v872h-463v-872h-233z" />
<glyph unicode="&#x440;" horiz-adv-x="1251" d="M127 -391v1448h219v-142q106 172 344 172q219 0 350 -153q131 -154 131 -410q0 -250 -127 -401q-129 -150 -342 -150q-225 0 -344 166v-530h-231zM350 528q0 -172 78 -270q80 -98 219 -98q133 0 211 98t78 266q0 172 -78 275q-80 100 -215 100q-137 0 -215 -98t-78 -273z " />
<glyph unicode="&#x441;" d="M76 518q0 262 143 416q141 156 383 156q203 0 328 -103q123 -102 143 -285h-231q-41 207 -238 207q-135 0 -213 -100q-78 -102 -78 -279q0 -176 74 -274q76 -98 209 -98q217 0 256 241h229q-25 -195 -155 -311q-131 -115 -330 -115q-238 0 -381 154q-139 147 -139 391z " />
<glyph unicode="&#x442;" horiz-adv-x="950" d="M10 872v185h930v-185h-348v-872h-234v872h-348z" />
<glyph unicode="&#x443;" horiz-adv-x="1062" d="M6 1057h256l283 -778l266 778h244l-391 -1037q-84 -227 -127 -288q-96 -135 -267 -135q-66 0 -161 12v196q74 -14 122 -14q76 0 123 86q14 27 58 154z" />
<glyph unicode="&#x444;" horiz-adv-x="1691" d="M74 545q0 250 112 397q113 145 303 145q158 0 234 -108h6v479h234v-479h6q76 109 233 108q190 0 303 -145q113 -147 113 -397q0 -246 -96 -398q-113 -176 -334 -176q-141 0 -219 99h-6v-461h-234v461h-6q-78 -98 -219 -99q-221 0 -334 176q-96 152 -96 398zM307 541 q0 -389 242 -389q72 0 123 34q47 33 57 82v514q-39 125 -190 125q-231 0 -232 -366zM963 268q10 -49 57 -82q51 -35 123 -34q242 0 241 389q0 366 -231 366q-152 0 -190 -125v-514z" />
<glyph unicode="&#x445;" horiz-adv-x="1099" d="M6 0l400 555l-367 502h283l221 -326l231 326h270l-358 -490l404 -567h-281l-268 389l-260 -389h-275z" />
<glyph unicode="&#x446;" horiz-adv-x="1208" d="M123 0v1057h233v-873h463v873h234v-873h141v-520h-225v336h-846z" />
<glyph unicode="&#x447;" horiz-adv-x="1099" d="M74 709v348h233v-266q0 -201 193 -201q131 0 252 51v416h233v-1057h-233v449q-176 -55 -344 -56q-334 0 -334 316z" />
<glyph unicode="&#x448;" horiz-adv-x="1667" d="M123 0v1057h233v-873h361v873h233v-873h361v873h233v-1057h-1421z" />
<glyph unicode="&#x449;" horiz-adv-x="1699" d="M123 0v1057h233v-873h361v873h233v-873h361v873h233v-873h142v-520h-226v336h-1337z" />
<glyph unicode="&#x44a;" horiz-adv-x="1290" d="M12 872v185h535v-383h321q172 0 267 -90q94 -88 94 -246t-92 -248q-96 -90 -267 -90h-557v872h-301zM547 182h297q152 0 151 152q1 158 -155 158h-293v-310z" />
<glyph unicode="&#x44b;" horiz-adv-x="1478" d="M113 0v1057h233v-383h281q172 0 266 -90q94 -88 94 -246t-92 -248q-96 -90 -266 -90h-516zM346 182h256q152 0 152 152q0 158 -156 158h-252v-310zM1133 0v1057h233v-1057h-233z" />
<glyph unicode="&#x44c;" horiz-adv-x="1099" d="M123 0v1057h233v-383h322q172 0 266 -90q94 -88 94 -246t-92 -248q-96 -90 -266 -90h-557zM356 182h297q152 0 152 152q0 158 -156 158h-293v-310z" />
<glyph unicode="&#x44d;" d="M66 360h231q51 -203 248 -202q250 0 278 303h-393v164h391q-43 285 -284 284q-180 0 -232 -178h-233q29 170 149 264q123 94 318 95q242 0 383 -156q143 -154 143 -416q0 -244 -139 -391q-143 -154 -381 -154q-186 0 -316 105q-129 104 -163 282z" />
<glyph unicode="&#x44e;" horiz-adv-x="1642" d="M123 0v1057h233v-418h195q29 209 166 328q135 121 344 120q234 1 371 -151t137 -408q0 -258 -137 -409q-137 -152 -371 -152q-221 0 -361 133q-137 133 -153 363h-191v-463h-233zM778 528q0 -178 74 -278t207 -100q129 0 203 102q72 100 71 278q0 174 -73 273 q-72 100 -203 100t-205 -100t-74 -275z" />
<glyph unicode="&#x44f;" d="M-16 0l352 453q-227 72 -227 311q0 139 90 215q90 78 258 78h559v-1057h-234v426h-198l-326 -426h-274zM342 743q0 -147 156 -147h284v283h-282q-158 0 -158 -136z" />
<glyph unicode="&#x451;" d="M70 516q0 248 145 410q143 162 367 161q231 0 366 -159q135 -158 135 -432v-25h-780q10 -334 291 -334q184 0 252 193h223q-39 -172 -170 -269q-129 -96 -309 -96q-240 0 -383 158q-137 152 -137 393zM252 1235v223h227v-223h-227zM307 627h543q-10 133 -82 211 q-74 76 -188 75q-238 0 -273 -286zM659 1235v223h228v-223h-228z" />
<glyph unicode="&#x452;" horiz-adv-x="1175" d="M31 883v174h106v401h234v-401h465v-174h-465v-291h4q111 168 327 168q170 0 269 -96q96 -96 96 -265v-188q0 -250 -178 -424q-174 -168 -424 -178v203q170 20 270 131q98 106 99 266v129q0 238 -203 237q-115 0 -189 -77q-72 -78 -71 -201v-297h-234v883h-106z" />
<glyph unicode="&#x453;" horiz-adv-x="872" d="M123 0v1057h739v-185h-506v-872h-233zM283 1196l174 293h268l-274 -293h-168z" />
<glyph unicode="&#x454;" d="M76 518q0 262 143 416q141 156 383 156q195 0 318 -95q121 -94 149 -264h-233q-51 178 -232 178q-242 0 -285 -284h402v-164h-404q29 -303 279 -303q197 0 248 202h231q-35 -178 -162 -282q-131 -104 -317 -105q-238 0 -381 154q-139 147 -139 391z" />
<glyph unicode="&#x455;" horiz-adv-x="1062" d="M63 338h224q18 -199 256 -199q102 0 166 41q61 43 61 113t-76 106q-35 16 -176 52q-242 59 -307 96q-125 70 -125 221q0 150 115 236q115 84 317 83q195 0 311 -79q131 -88 132 -258h-224q-20 168 -229 168q-188 0 -189 -123q0 -72 72 -103q29 -12 199 -51 q199 -47 274 -90q135 -80 135 -234q0 -160 -125 -254t-335 -94q-457 0 -476 369z" />
<glyph unicode="&#x456;" horiz-adv-x="493" d="M129 0v1057h233v-1057h-233zM129 1235v229h233v-229h-233z" />
<glyph unicode="&#x457;" horiz-adv-x="493" d="M-72 1235v223h230v-223h-230zM129 0v1057h233v-1057h-233zM336 1235v223h229v-223h-229z" />
<glyph unicode="&#x458;" horiz-adv-x="493" d="M-39 -209l55 -4q66 0 90 16q31 20 31 80v1174h234v-1112q0 -186 -66 -264q-72 -86 -246 -87q-31 0 -98 7v190zM137 1235v231h234v-231h-234z" />
<glyph unicode="&#x459;" horiz-adv-x="1673" d="M20 -2v182q20 -10 84 -10q139 0 148 262l18 625h734v-404h247q174 0 267 -86q94 -84 94 -239q0 -158 -92 -242q-94 -86 -267 -86h-483v872h-276l-15 -462q-6 -207 -90 -322q-82 -113 -225 -113q-86 0 -144 23zM1004 182h223q152 0 151 142q1 147 -155 147h-219v-289z" />
<glyph unicode="&#x45a;" horiz-adv-x="1673" d="M123 0v1057h233v-402h402v402h233v-404h260q174 0 267 -86q94 -84 94 -239q0 -158 -92 -242q-94 -86 -267 -86h-495v471h-402v-471h-233zM991 182h236q152 0 151 142q1 147 -155 147h-232v-289z" />
<glyph unicode="&#x45b;" horiz-adv-x="1175" d="M31 883v174h106v401h234v-401h465v-174h-465v-291h4q111 168 327 168q170 0 269 -96q96 -96 96 -265v-399h-233v338q0 238 -203 237q-115 0 -189 -77q-72 -78 -71 -201v-297h-234v883h-106z" />
<glyph unicode="&#x45c;" horiz-adv-x="1099" d="M123 0v1057h233v-469l422 469h285l-412 -424l459 -633h-283l-331 473l-140 -145v-328h-233zM412 1196l174 293h268l-274 -293h-168z" />
<glyph unicode="&#x45e;" horiz-adv-x="1062" d="M6 1057h256l283 -778l266 778h244l-391 -1037q-86 -227 -127 -286q-96 -137 -267 -137q-66 0 -161 12v196q74 -14 122 -14q76 0 123 86q14 27 58 154zM207 1493h119q39 -156 217 -156t217 156h119q-31 -289 -336 -289t-336 289z" />
<glyph unicode="&#x45f;" horiz-adv-x="1175" d="M123 0v1057h233v-873h463v873h234v-1057h-351v-336h-233v336h-346z" />
<glyph unicode="&#x490;" horiz-adv-x="1153" d="M156 0v1458h733v322h256v-543h-733v-1237h-256z" />
<glyph unicode="&#x491;" horiz-adv-x="872" d="M123 0v1057h510v315h233v-500h-510v-872h-233z" />
<glyph unicode="&#x2000;" horiz-adv-x="921" />
<glyph unicode="&#x2001;" horiz-adv-x="1843" />
<glyph unicode="&#x2002;" horiz-adv-x="921" />
<glyph unicode="&#x2003;" horiz-adv-x="1843" />
<glyph unicode="&#x2004;" horiz-adv-x="614" />
<glyph unicode="&#x2005;" horiz-adv-x="460" />
<glyph unicode="&#x2006;" horiz-adv-x="307" />
<glyph unicode="&#x2007;" horiz-adv-x="307" />
<glyph unicode="&#x2008;" horiz-adv-x="230" />
<glyph unicode="&#x2009;" horiz-adv-x="368" />
<glyph unicode="&#x200a;" horiz-adv-x="102" />
<glyph unicode="&#x2010;" horiz-adv-x="796" d="M98 455v217h600v-217h-600z" />
<glyph unicode="&#x2011;" horiz-adv-x="796" d="M98 455v217h600v-217h-600z" />
<glyph unicode="&#x2012;" horiz-adv-x="796" d="M98 455v217h600v-217h-600z" />
<glyph unicode="&#x2013;" horiz-adv-x="1024" d="M0 457v213h1024v-213h-1024z" />
<glyph unicode="&#x2014;" horiz-adv-x="2048" d="M0 457v213h2048v-213h-2048z" />
<glyph unicode="&#x2018;" horiz-adv-x="569" d="M137 895v225q0 315 281 365v-121q-127 -41 -133 -199h133v-270h-281z" />
<glyph unicode="&#x2019;" horiz-adv-x="569" d="M150 868v121q127 41 133 199h-133v270h280v-225q0 -315 -280 -365z" />
<glyph unicode="&#x201a;" horiz-adv-x="569" d="M158 0v262h256v-205q0 -317 -256 -374v114q121 49 127 203h-127z" />
<glyph unicode="&#x201c;" horiz-adv-x="909" d="M121 903v252q0 129 78 221q74 86 180 107v-117q-125 -47 -125 -201h125v-262h-258zM524 903v252q0 129 78 221q74 86 180 107v-117q-125 -47 -125 -201h125v-262h-258z" />
<glyph unicode="&#x201d;" horiz-adv-x="909" d="M123 879v116q125 47 125 201h-125v262h258v-252q0 -129 -78 -221q-74 -86 -180 -106zM526 879v116q125 47 125 201h-125v262h258v-252q0 -129 -77 -221q-74 -86 -181 -106z" />
<glyph unicode="&#x201e;" horiz-adv-x="909" d="M125 0v262h258v-252q0 -129 -78 -221q-74 -86 -180 -106v116q125 47 125 201h-125zM528 0v262h258v-252q0 -129 -77 -221q-74 -86 -181 -106v116q125 47 125 201h-125z" />
<glyph unicode="&#x2020;" d="M68 848v199h387v411h225v-411h391v-199h-391v-1176h-225v1176h-387z" />
<glyph unicode="&#x2021;" d="M68 70v196h389v598h-389v197h389v397h221v-397h393v-197h-393v-598h393v-196h-393v-396h-221v396h-389z" />
<glyph unicode="&#x2022;" horiz-adv-x="1024" d="M147 729q0 152 107 258q109 106 258 107q152 -1 258 -107t107 -258q0 -150 -107 -258q-106 -106 -258 -106q-150 0 -258 106q-106 109 -107 258z" />
<glyph unicode="&#x2026;" horiz-adv-x="2048" d="M221 0v266h240v-266h-240zM903 0v266h240v-266h-240zM1585 0v266h242v-266h-242z" />
<glyph unicode="&#x202f;" horiz-adv-x="368" />
<glyph unicode="&#x2030;" horiz-adv-x="2351" d="M162 1096q0 352 299 352q297 0 297 -346q0 -168 -80 -260q-78 -92 -221 -92q-295 0 -295 346zM266 -63l932 1548h148l-928 -1548h-152zM328 1090q0 -215 131 -216q131 0 131 226q0 225 -131 225q-131 1 -131 -235zM885 319q0 352 301 353q295 0 295 -338 q0 -358 -295 -359q-301 0 -301 344zM1051 319q0 -221 135 -221q127 0 127 232q0 221 -129 221q-133 -1 -133 -232zM1593 319q0 354 299 355q297 0 297 -342q0 -356 -297 -357q-299 0 -299 344zM1757 319q0 -221 135 -221q129 0 129 230q0 223 -131 223q-133 -1 -133 -232z " />
<glyph unicode="&#x2039;" horiz-adv-x="530" d="M88 430v223l315 248v-211l-192 -147l192 -152v-213z" />
<glyph unicode="&#x203a;" horiz-adv-x="530" d="M125 182v209l194 148l-194 151v213l315 -250v-227z" />
<glyph unicode="&#x205f;" horiz-adv-x="460" />
<glyph unicode="&#x2122;" horiz-adv-x="2027" d="M211 1346v112h612v-112h-233v-617h-144v617h-235zM942 729v729h215l184 -514l183 514h211v-729h-129v600l-211 -600h-111l-211 600v-600h-131z" />
<glyph unicode="&#x2206;" horiz-adv-x="1396" d="M20 0l560 1425h213l583 -1425h-1356zM301 186h784l-401 1010z" />
<glyph unicode="&#x221a;" horiz-adv-x="1228" d="M20 338l279 129l281 -592l354 1735h211l-434 -2048h-195l-319 659l-101 -47z" />
<glyph unicode="&#x221e;" horiz-adv-x="1630" d="M90 526q0 156 92 254t236 99q184 0 399 -240q213 242 393 242q145 0 238 -99q92 -96 92 -252q0 -158 -90 -258q-92 -98 -240 -98q-186 0 -393 227q-160 -143 -174 -153q-100 -72 -219 -72q-147 0 -240 98q-94 96 -94 252zM258 524q0 -78 45 -123q45 -47 121 -47 q117 0 285 168q-180 178 -293 178q-68 0 -113 -49q-45 -51 -45 -127zM924 522q161 -170 288 -170q72 0 117 47q45 49 45 125q0 80 -45 129q-47 49 -121 49q-115 0 -284 -180z" />
<glyph unicode="&#x2248;" horiz-adv-x="1228" d="M68 154q14 143 79 231q78 104 211 104q61 0 277 -69q203 -68 260 -68q109 0 133 140h133q-35 -334 -293 -334q-68 0 -274 65q-221 76 -256 76q-117 0 -137 -145h-133zM68 561q14 143 79 232q78 104 211 104q61 0 277 -70q203 -68 260 -67q109 0 133 139h133 q-35 -334 -293 -334q-68 0 -274 66q-221 76 -256 76q-117 0 -137 -146h-133z" />
<glyph unicode="&#x2260;" horiz-adv-x="1228" d="M84 209v197h358l125 243h-483v195h584l157 311l172 -88l-114 -223h260v-195h-361l-125 -243h486v-197h-586l-158 -309l-172 88l115 221h-258z" />
<glyph unicode="&#x2264;" horiz-adv-x="1228" d="M78 -70v197h1059v-197h-1059zM78 555v199l1059 370v-206l-791 -263l791 -252v-206z" />
<glyph unicode="&#x2265;" horiz-adv-x="1228" d="M92 -70v197h1059v-197h-1059zM92 197v206l791 252l-791 263v206l1059 -370v-199z" />
<glyph unicode="&#xe000;" horiz-adv-x="1054" d="M0 0v1055h1055v-1055h-1055z" />
</font>
</defs>
</svg>
